<svg xmlns="http://www.w3.org/2000/svg" viewBox="0 0 512 512">
  <rect width="512" height="512" rx="64" fill="#111827"/>
  <g transform="translate(56, 56)">
    <!-- Chess board pattern -->
    <rect x="0" y="0" width="100" height="100" fill="#4B5563"/>
    <rect x="100" y="0" width="100" height="100" fill="#374151"/>
    <rect x="200" y="0" width="100" height="100" fill="#4B5563"/>
    <rect x="300" y="0" width="100" height="100" fill="#374151"/>
    <rect x="0" y="100" width="100" height="100" fill="#374151"/>
    <rect x="100" y="100" width="100" height="100" fill="#4B5563"/>
    <rect x="200" y="100" width="100" height="100" fill="#374151"/>
    <rect x="300" y="100" width="100" height="100" fill="#4B5563"/>
    <rect x="0" y="200" width="100" height="100" fill="#4B5563"/>
    <rect x="100" y="200" width="100" height="100" fill="#374151"/>
    <rect x="200" y="200" width="100" height="100" fill="#4B5563"/>
    <rect x="300" y="200" width="100" height="100" fill="#374151"/>
    <rect x="0" y="300" width="100" height="100" fill="#374151"/>
    <rect x="100" y="300" width="100" height="100" fill="#4B5563"/>
    <rect x="200" y="300" width="100" height="100" fill="#374151"/>
    <rect x="300" y="300" width="100" height="100" fill="#4B5563"/>
    <!-- Tank icon -->
    <g transform="translate(125, 125)">
      <rect x="0" y="60" width="150" height="80" rx="10" fill="#EAB308"/>
      <rect x="25" y="40" width="100" height="50" rx="8" fill="#CA8A04"/>
      <rect x="100" y="55" width="80" height="20" rx="5" fill="#A16207"/>
      <circle cx="30" cy="120" r="25" fill="#1F2937"/>
      <circle cx="75" cy="120" r="25" fill="#1F2937"/>
      <circle cx="120" cy="120" r="25" fill="#1F2937"/>
    </g>
  </g>
</svg>
